<svg width="129" height="43" viewBox="0 0 129 43" fill="none" xmlns="http://www.w3.org/2000/svg">
<path d="M24.1745 12.275H27.9495L29.7995 17.95L31.6495 12.275H35.4495L32.4245 20.525L34.2245 25.25L38.6745 12.25H43.1495L36.2245 30H32.6745L29.7995 23.05L26.9495 30H23.3745L16.4745 12.25H20.9245L25.3995 25.25L27.1495 20.525L24.1745 12.275ZM48.8345 30.25C47.7178 30.25 46.7178 30.0667 45.8345 29.7C44.9678 29.3333 44.2345 28.8333 43.6345 28.2C43.0345 27.5667 42.5761 26.8417 42.2595 26.025C41.9595 25.2083 41.8095 24.35 41.8095 23.45C41.8095 22.5333 41.9595 21.6667 42.2595 20.85C42.5761 20.0333 43.0345 19.3083 43.6345 18.675C44.2345 18.0417 44.9678 17.5417 45.8345 17.175C46.7178 16.8083 47.7178 16.625 48.8345 16.625C49.9511 16.625 50.9428 16.8083 51.8095 17.175C52.6761 17.5417 53.4095 18.0417 54.0095 18.675C54.6095 19.3083 55.0678 20.0333 55.3845 20.85C55.7011 21.6667 55.8595 22.5333 55.8595 23.45C55.8595 24.35 55.7011 25.2083 55.3845 26.025C55.0678 26.8417 54.6095 27.5667 54.0095 28.2C53.4095 28.8333 52.6761 29.3333 51.8095 29.7C50.9428 30.0667 49.9511 30.25 48.8345 30.25ZM45.9095 23.45C45.9095 24.1333 46.0345 24.7333 46.2845 25.25C46.5511 25.7667 46.9011 26.1667 47.3345 26.45C47.7678 26.7333 48.2678 26.875 48.8345 26.875C49.3845 26.875 49.8761 26.7333 50.3095 26.45C50.7595 26.15 51.1095 25.7417 51.3595 25.225C51.6095 24.7083 51.7345 24.1167 51.7345 23.45C51.7345 22.7667 51.6095 22.1667 51.3595 21.65C51.1095 21.1333 50.7595 20.7333 50.3095 20.45C49.8761 20.1667 49.3845 20.025 48.8345 20.025C48.2678 20.025 47.7678 20.1667 47.3345 20.45C46.9011 20.7333 46.5511 21.1333 46.2845 21.65C46.0345 22.1667 45.9095 22.7667 45.9095 23.45ZM66.1683 20.3C65.2016 20.3 64.3266 20.4583 63.5433 20.775C62.7599 21.075 62.1933 21.525 61.8433 22.125V30H57.8433V16.875H61.5183V19.525C61.9683 18.6417 62.5516 17.95 63.2683 17.45C63.9849 16.95 64.7349 16.6917 65.5183 16.675C65.7016 16.675 65.8349 16.675 65.9183 16.675C66.0183 16.675 66.1016 16.6833 66.1683 16.7V20.3ZM76.678 30L73.253 24.75L71.853 26.175V30H67.853V11.75H71.853V22.3L76.303 16.875H80.528L75.803 22.525L80.928 30H76.678ZM89.8899 30.15C88.4733 30.15 87.2649 29.9167 86.2649 29.45C85.2649 28.9667 84.4483 28.3167 83.8149 27.5C83.1983 26.6667 82.7399 25.725 82.4399 24.675C82.1566 23.6083 82.0149 22.4917 82.0149 21.325V12.25H86.1149V21.325C86.1149 21.9917 86.1816 22.6417 86.3149 23.275C86.4483 23.8917 86.6649 24.4417 86.9649 24.925C87.2649 25.4083 87.6483 25.7917 88.1149 26.075C88.5983 26.3583 89.1899 26.5 89.8899 26.5C90.6066 26.5 91.2066 26.3583 91.6899 26.075C92.1733 25.775 92.5566 25.3833 92.8399 24.9C93.1233 24.4 93.3316 23.8417 93.4649 23.225C93.5983 22.6083 93.6649 21.975 93.6649 21.325V12.25H97.7649V21.325C97.7649 22.5583 97.6066 23.7083 97.2899 24.775C96.9899 25.8417 96.5233 26.7833 95.8899 27.6C95.2566 28.4 94.4399 29.025 93.4399 29.475C92.4566 29.925 91.2733 30.15 89.8899 30.15ZM105.349 30.25C104.232 30.25 103.14 30.0667 102.074 29.7C101.007 29.3333 100.107 28.7917 99.3737 28.075L100.749 25.55C101.549 26.1333 102.324 26.575 103.074 26.875C103.84 27.175 104.557 27.325 105.224 27.325C105.74 27.325 106.14 27.2417 106.424 27.075C106.707 26.9083 106.849 26.65 106.849 26.3C106.849 26.05 106.765 25.8583 106.599 25.725C106.432 25.575 106.174 25.4417 105.824 25.325C105.49 25.2083 105.074 25.0833 104.574 24.95C103.574 24.6167 102.74 24.2917 102.074 23.975C101.407 23.6583 100.907 23.275 100.574 22.825C100.24 22.3583 100.074 21.7583 100.074 21.025C100.074 20.1417 100.29 19.375 100.724 18.725C101.174 18.0583 101.807 17.5417 102.624 17.175C103.44 16.8083 104.415 16.625 105.549 16.625C106.449 16.625 107.324 16.7667 108.174 17.05C109.04 17.3333 109.849 17.8083 110.599 18.475L109.049 20.975C108.299 20.4583 107.632 20.0833 107.049 19.85C106.465 19.6167 105.899 19.5 105.349 19.5C105.065 19.5 104.807 19.5333 104.574 19.6C104.34 19.6667 104.149 19.7833 103.999 19.95C103.865 20.1 103.799 20.3 103.799 20.55C103.799 20.8 103.865 21 103.999 21.15C104.149 21.3 104.374 21.4333 104.674 21.55C104.99 21.65 105.382 21.775 105.849 21.925C106.932 22.2417 107.832 22.5667 108.549 22.9C109.265 23.2167 109.799 23.6167 110.149 24.1C110.515 24.5667 110.699 25.1917 110.699 25.975C110.699 27.3083 110.215 28.3583 109.249 29.125C108.299 29.875 106.999 30.25 105.349 30.25Z" fill="black"/>
<path d="M1 1H128V42H1V1Z" stroke="black" stroke-width="2"/>
</svg>
